<svg width="18" height="18" viewBox="0 0 18 18" fill="none" xmlns="http://www.w3.org/2000/svg">
<path d="M3.17911 2.55847C3.17911 2.55847 3.57859 2.14829 4.37756 1.32793C5.17652 0.507567 6.71738 0.0973854 9.00012 0.0973854C11.2829 0.0973854 13.2232 0.917748 14.8211 2.55847C16.4191 4.1992 17.218 6.18947 17.218 8.52929V15.0779C17.218 15.8484 16.9469 16.5118 16.4048 17.0682C15.8626 17.6246 15.2206 17.9028 14.4787 17.9028H11.7394V10.3698H15.3776V8.52929C15.3776 6.70309 14.7569 5.1551 13.5157 3.88532C12.2744 2.61554 10.7693 1.98065 9.00012 1.98065C7.23099 1.98065 5.72581 2.61554 4.48456 3.88532C3.24332 5.1551 2.62269 6.70309 2.62269 8.52929V10.3698H6.26083V17.9028H3.52153C2.77963 17.9028 2.13761 17.6246 1.59546 17.0682C1.0533 16.5118 0.782227 15.8484 0.782227 15.0779V8.52929C0.782227 6.18947 1.58119 4.1992 3.17911 2.55847Z" fill="black"/>
</svg>
